<mxfile host="65bd71144e">
    <diagram id="5B1MlHIZE8UZlNnkBuPE" name="Page-1">
        <mxGraphModel dx="792" dy="458" grid="0" gridSize="10" guides="1" tooltips="1" connect="1" arrows="1" fold="1" page="1" pageScale="1" pageWidth="2339" pageHeight="3300" math="0" shadow="0">
            <root>
                <mxCell id="0"/>
                <mxCell id="1" parent="0"/>
                <mxCell id="33" value="" style="outlineConnect=0;gradientColor=none;html=1;whiteSpace=wrap;fontSize=12;fontStyle=0;strokeColor=#879196;fillColor=none;verticalAlign=top;align=center;fontColor=#879196;dashed=1;spacingTop=3;" vertex="1" parent="1">
                    <mxGeometry x="175" y="266" width="533" height="191" as="geometry"/>
                </mxCell>
                <mxCell id="32" value="&lt;b&gt;AWS Cloud&lt;/b&gt;" style="sketch=0;outlineConnect=0;gradientColor=none;html=1;whiteSpace=wrap;fontSize=12;fontStyle=0;shape=mxgraph.aws4.group;grIcon=mxgraph.aws4.group_aws_cloud;strokeColor=#AAB7B8;fillColor=none;verticalAlign=top;align=left;spacingLeft=30;fontColor=#AAB7B8;dashed=0;strokeWidth=2;" vertex="1" parent="1">
                    <mxGeometry x="130" y="69" width="786" height="419" as="geometry"/>
                </mxCell>
                <mxCell id="19" value="&lt;font style=&quot;font-size: 14px;&quot;&gt;MSK Data Generator&lt;br&gt;Source Connector&lt;br&gt;&lt;/font&gt;" style="ellipse;whiteSpace=wrap;html=1;aspect=fixed;fillColor=#fff2cc;strokeColor=#d6b656;gradientColor=#ffd966;" parent="1" vertex="1">
                    <mxGeometry x="212" y="317" width="100" height="100" as="geometry"/>
                </mxCell>
                <mxCell id="20" value="" style="endArrow=classic;html=1;fontSize=16;strokeWidth=2;" parent="1" edge="1">
                    <mxGeometry width="50" height="50" relative="1" as="geometry">
                        <mxPoint x="326" y="369" as="sourcePoint"/>
                        <mxPoint x="375" y="369" as="targetPoint"/>
                    </mxGeometry>
                </mxCell>
                <mxCell id="21" value="Camel DynamoDB&#10;Sink Connector" style="shape=image;verticalLabelPosition=bottom;labelBackgroundColor=default;verticalAlign=top;imageAspect=0;image=data:image/png,iVBORw0KGgoAAAANSUhEUgAAAM8AAADoCAIAAADHSieGAAAAAXNSR0IArs4c6QAAAARnQU1BAACxjwv8YQUAAAAJcEhZcwAADsMAAA7DAcdvqGQAAAASdEVYdFNvZnR3YXJlAEdyZWVuc2hvdF5VCAUAABQKSURBVHhe7Z3Na1RJF8b9N1y7Ety7dpfV4Co7F27duMnOXVauBEHe4eXlHVDxA8EEJGIWEoIgEyQyIIkkoIGAAy5CI2TRKIk9v7rnds/19kdud9976lTdeniYabU/qk49dc6pj1t1rpdwJr5/6x3t9vZXeh/u9/76vbd125EX/PHTy15nz70hoQKS2sbhtHe40dtc6j043/vvud7vGXlR4uDvedubW+4jCeOR1DaEzoHTzf/6MuLF/yuQt4n4ePF2uXf8Jf+2hAKS2gogJq4t9v4zjciGOZAdX8UXJhSQ1JaBxOv1jd69OUQ2TL6KL+RrU1bXR1Jbz+X7eCNYkkstlG/mJxLarjaSerJ7ol5JIrWTn+CHWj+GaKvayOJXF2oOnZPJD5ER8qMtHkC0T20/f7gxowweS4JQoGiOMe9JNy9Pm9AytX186tq7oRStOikAxdh5mJeqNWiN2o52e48venNpw6QYFObRhd7X93kJW4AWqK175KYhiF9GdFYkRaJg69dcIVuA2NW2fde5EO+hczIpHoXcuu2Wy6JGvGr79LL3R9aKpaY1SykqxY4XMaqts9d7fsVo6JxMCawUniwzRsSltu/fehs3VWfRmiCFj3TJKyK1NboApU+pS1xLXlGoTW0BSp9UKqIlr8DVJgtQIaZo1TlI5sJf8gpWbSddtwAVt86KFM0FvuQVptr2V5z1o0nRqpMqU/GPT3M7hIbQ1Pb1va0FKH1Scaof5pJXOGrrHvXWrwc/u1EXMQKBdW0xrGQuELW9u+M6dAtD52RiEMxC/vrzR24o2zCvts+vAluA0mc4yZxhtYW7AKVPSeaeXTaezJlUG4P8jZtJZ1NTkjnD+5fsqe3DfRcaUoo2MyWZI9O1t3/Jktr+/tMN7LFUcmnzEzOS75L1WoINtTGMf3E1hc6aKYGVZM7MI/u+1da2BSh9Yth759zxOQb2L3lV2/6KM0dK0RQoqbDv/Uue1Ha023tyKaVo2sTgXvcvqatNnoBKC1C+KIGVLNnHkpeu2oJ4AqoNRHM0xJtbykteWmrDe6cFKGuUZE5xyat5tXUO4t9eGy7FyZFDqyx5Nam2k64beCed2ScNRDM1v+TVmNp2HuaOulSxRLOksfBz7+40l8w1oLa0ABU0aTgy7GYe2a9VbQyq5ZTkpLOgKYG1gSWvmtSG79267YqYQmc0RHP3zrmtX/UtedWhtv0V53uTzqKkJN81LXnNp7ajXedvU4oWPSWZm3vJa1a14V3NHsGX2AQlmXtx1U2gzoqZ1BbZ+S6J1Ynm8HOzLnlNqba0AJUIxddMv+RVWW3HLTjfJbE6xck9vjjVklc1tRE6Wz4UoO6TWXp/S0jFcUDr1ysG1rPUxmjg+ZV2hU4sKJGCWmNKcecPzrt+zAAca+DjIS8gf/PoQj4BxDv5COR1q/RHfbFAhdNbJ6qts9eKiTSRl2iLFyhpc8k9aEiSigXob+4Qq4lPy9GzeQ/JBh8hm+Hj0kVFf20QHxWkpmfdNzJebcRjPh+xmURhEOf0djm/s7te8IX7K24EJwvHcdsT3pNz+MdijNqQmkSQ0tdFQOmFSI1sAymobZjmh3B7a4u5ymOVHbIZL7hRasMu8Tl/qkOl6HwEStyYC46eQGj+/MrJjsLEZ2eI4MZMjgypjWYgV4vJBNQFX0Kl3t2xdUAGhdm+6woWn6ujI42aGRlSm7j60ocDJU1IP2PY6A4oMHypD76WQsaUukhFhgLIr2ojj6HOxY8FStEZA8O//8yrZh8UNSbN4bNe38ir1kdBbeQTEaQRlJ/ARLMFpLMiKHY0z3XTc35thYLaNpeCj6FS/gguJiPLRm2hNwdVeHwxr1GGvtoYh5LZld4dEKkYPUn9cdwGQdITwZ4uyl841auvto2bAfck4s6jC3Hee0ckCno5h65CVtNHpja6EQ1Wel8QpDJnzV8HD7y1nJxSqnsoxL31HUGmNrKEENVGj0dtKg95+wfxKNChA81EhpMhU9vqQnjVwPQU2+OSgD7IrRmuBhdVkdaD81KDbAouuArgnEk02wmianCBqB9MsxmRsEpP0eO6I3ZqyNmxJbNYJu4s24yUrR6G4tvwyVjZ2DnZfkDjBSQ4BJatK2Qbb4JI2kRqga4QNIHDDTdQDaXtyDid2h5dCKDElJD+EeWM2jxgPI5ZghAc2ZpTm/0wmqQ2AaFsscYNn3Sz/5X+wRoJoC2ZVJsNZBdBNOLxF/Nqo5RzHz8RPz69tD5ooHidPdtqo4gtn+yojq3bpmeyrKsN220u5aZMqIL1a3azcNNqw2rPr+RGNIjv31zwMpdNnrr9ZDZHDHbVhr0gLWoT+yuuM+B6Md2zy7YGy2afl7OrNopkdha3NKfKC/744X7+rxYgJRwY0wiNqg2f8XY5N5xBjJwMx4amRjOvb5hL4CyqjYakOc1iwn56/p4IawQ/f5h7KNii2rIy5SYziMn7ZbCkncJTVIxZKqFHmlMbzt9yDAWT1SaOGf/3bQyVn9Rfv24ontpSm7h9y0+0A4afkx0GteAN44hSX1zVG2vzQxP6hjKpviG1URr7K1S035zmkqkTtQyPwbIRwRlSGy7B8lxuEQ/O15B9Y/rVBReXOwf1kPA9DkZ2lBlSG0UJZZdHXZMLKACvQ8Xr4rjLu+VhrdKv65MSmlAbdsdSocBI4w2TPkCLjjyV4skl/+7NitooQEA7JUnd7Az0hokxh+eZLfQQE2oLy7EJ1q+ZyITGkQYdXkmrJd2chybURiGC25drbeJ0mBSPQhax89Cze/OvNnpb9ihOeDC7sUdI2WBxYu+km/9l6Z1q9K82epudtcXqwBlblpqQ5JKIX8SbWz4zThNqC+4gDzJuDGdfbZCWLQ6/Onuu5KX3qNGz2uhn2fPTISGsc4npEmuLeckFHhMAz2rj50uZrHHY3KU4mUSP4lYAxqq+gqlPtUkPCwiEJO9TVjOQMhePTUF5Hp2LN7XRwwJ6norkkjIHkauViJ1Lk73PLvupiE+10ecCeib5+RWfo7l5SLFLx8QiPi918RxJQxmNbt8NMoYKKXlpjunMLXoN0ZvakNrqQl554/DVNrUQO1P40uZNX48seFPbcDJhFkEcN1YkpYW4NFqXBGDkquDaYpvUhi2CWBu1s/F1HEVb9F7KCWlK/Nb6dVfyzkFei2F4Sd28qY0ftp+0mdrULyxpC6ItxpiM7nceug48YQdvEbxTv2p+1Ia9+ueZm4aRB4AH8qK1eE2+i7Y+PnUT4zM/wUVH4ttKP9Q0/agN29mfafO7pFhUGLkXg+LDjSwy1vdAmv5AwZvahvf6WYOX60r4RRSGfURhLrVt7HlH/YGCH7VhUOPLo0e7Hnogv4jE91fKExYN4e2y+9FSMRqlH7XxqxWTWV/Q7Pc0OQYhR5wwhGwC+jebefNtlq8QVZvOlbi5fk37uAYB4SV+tWFi8lPLxy/onJ2BHfgVjyvF+mskftRWuBvVHAjxOm2AX6G9PQKH2gq1rfyWV9ggdHbuY/finjM/OG2H2kqPZtjBSVejAVAzwdo/Tl1blMrWKP2o7cF5fjWvsils39VwbPyEzhzHGTjVnuD1oDZIDflhRuC2oGJ90jU7m1+Un573ozYhv23q8mSF+Sea1o3HzUB5M5VPtUFa98klG2FFpaNTX/+DgwLapTYotfU7FwA+vdRwbNbOoGhRJB2QClMOv2lcCx1bW0YJI0kZfG1D2l/RcGyELVtowwzIBNLkz6+o7+nVGoqOPDLSJ04b72Ml2lIblOkuzTTu3R0Nx0aktgb9h+bNqQ3SNhRLZ7vl8ReN/s1P7DzMf9EOWrEqX5GUzC3vNLxVhMDddAzl+6HBHVaHG62PpEUSVQlAzUVVnXuxqQXB2iD0DzsyrTaIV6BsTbSWnPhX+rkmSPmNTF+XoH9OpXW1CfFAjy/W6eTUtq3SnGaPQ9R/zCcMtUFxcptLNcyP7K/o1dfZV/dpg+pQdmwwGLUJMRB0eyhmGj2QqqNXnQAK6SFm74FQ26JcZGBqgzShBMHtu9PlQzsP3ac0OzTlNPsgo/6AFIanNiGaQzcUe23RRUb3zNIob0fY/fo+f3AS42qmKfyWuaWqAhiPa3Y8YahqG1BcHdV4cN6FrfVrLiuHvH5yyRmUf9I3K6RU5raLFuDlMNTg1TYgthOiLSivS+/RJGVoemp6ZpCBeOmB8ajNFGlLmzO6Ai9JG0xqa4S0pZfH3yvC1/1DSW31k4Y0fl6Y8ibKAZPa6ieOzfKZOvpbPwZMaquZ+Ayzz2YLPF7jl9RWM7GkzQezB/A4Wk9qq5O0YunCPGvwNRoVJrXVSaypucd9Bry46s2xwaS22mjfsXUOXHuXiq3JpLbamJkyb1eb2FzyNj4QJrXVQ/uO7buBm0aS2uohBjR+brWXTR8lJrXVQFrR1GFNwzjp+pcaTGqrgcZXRYH+1QgjmdQ2L2lFy9s9AD3Be8YmTGqbiwwOoNl9bAKdA/mrMKltLmI+c2fJ/Iqv7w01blLb7MSr2b+s/PFFV85SyX0xqW12Gt9ZBLbvWsnYhEltM5JWNH4vvt/7VUcyqW0WEpssX54kUD5TtwqT2mah/Ri6cdPKOLTIpLapicksPygK9lfMxVBhUtt0xGEY3wjeObA1MigyqW0Kkga5m1wMz+WedL09T1WFSW1VSRPiM8wej+Vw6sYuBtO1AZPaqhITebwnuQrWFk1LDeZq43+lf0gsEvsYn117fcNuujYgZjz+kr0yG+y9k1Z8cytvVJugePalBokP3aPstq+ktpGkFU3ckzweoUgNorZeLzuJ2HjI90InNdvzHUEEUCHuLLsQJ9sPmNRWon2p4XRDkRpEbVmUyEZbAZVbgVgDt2EWJ9385M1SsS2T0ma3SWXXRyS1DcjQ6e2yNKtFHO26QgaXZ2PV7CCB7KZzhRuf7BMLkMkavAFtALn8PriWosD9ZZhMbXi5lrs3XD38+t5ZwyJOXXAPdGYUw/ZPUMzU1vJgSt1XF6a7gEETxCAGdGElakXSSfrdOFMbsPNwjiYlelpeKpC7BsPNcyg5Y5o++mqjA2H30lsjJlagFR9f7Jk9LeZww6U7occcHNvnV3mN/lUbsL+yWwtFZ48u2H0+r3PgzlqjncJ1acJfHRsoqO1Y5eZrXxSR4b8ZgBd6my2QO5JQU87QdSYsZGyCgtrAu+Zv9fdCsmw898ends/sQGekaDRPNOGFigydx/Or2kB8i/RUB4dhdshJ4kir0MljSmOwOUnn0IX6Q2qTeBqZ4GhIKsW429QtjiSOhPXIdCYkYxl1CvGQ2gBNgksvfT4C0oWkI71dHmkLDdDdMa+cSxpfrxYitf2VvL6/YpTagOaN2MqkgWlpuhPJ3Jtbru0Vgiz5IibFuYri43NmAyKb7bt5rYcwRm2AnJpPRtn5hCI7aftnl12SfrhR55PJfBWxEkE/uuB+RTxZxPaECGbigXbj1QZkM1LcBhIOlCcdbOU3l7n/9bubK8H5dQ6c/zvpOv6b+Z661/wN/8QbeBva4iNEScnGcJ/8l69tiQGp71l7GiaqDWBHIg5WK317xMRwIj7Rn+gG8kf+laEWBhHymr8ZCAvKp9ogryLFXPS3s3CW2gSk1Ri0bUYcpgixyNIb2kYsQB/Dl1fLfaupDeDkVheS5hL/pXjxMcPPkaisNkEcS8WJcxKRkeAS8Uhbp8GUahOQC0uCUipEYvREZ8S3F1dnG7zPpDZAnJbdpCmwtofENMZGFUYD4zCr2gRHu26mikIkzcVN4hitnD03NQ/mU5uAPJFkLgXWKIkfQWcbN6dN0UaiDrWBnz9i2zCTKCna6kKN25trUpuAzHFtMSVzMRB/Rryqe9tprWoTkEXKymDSXIiU2YbxK+vzoAG1CXYe5uUuVSbRLPEO97JTKRrb4dyY2gB55eZSCqwBkAYiFj273PS2vybVJkhLXsYpKZrKE2jNq02QlrwMkjwHL7B1e/gBgoagpTaBXPWVkjnvJM6gs/Vryg+h6aoNUD3y0Lh3BVumpGhPLnk5YkddbQKyUSpMtZPmNCmzBP4uT/KkNsH+Sm6CokUSmyBGpm+/XVZL0UbCq9rASTdtDG6WGJa8ZW2xzgd8ZoVvtQkwRBznrJiipGjz7RGqFzbUJhgseZWsljgDJUWbe49QvbCkNgEGEkuVzJdYkRI6TR59Yk9tgGRu42YKrFMTc2G051fc+o1JmFSboLPnDJc0V5GSoh2avmvQsNoEn1+lJa8zKLMbxi8azGBebQI5xjAlcyVK6Hx9w2CKNhKBqA10j9wZQSmwCgcpmq+jwWZCOGoTfH3vDgLHz7VZc1S/gW3cCghNbYKPT53aWhhYJUVrZhu3AsJUG2jbkpeEzia3cSsgWLUJjr/EvzGYquHPnlwKK0UbicDVJjjccFNNNEmpnSKgpGhmLxKZElGoTRDZWTiSom3dlrsW40BEagNyFk7oG4MlRVPfxq2AuNQmCHfJa5Ci2b0pdS7EqDYBuU5YS16ETtTmbxu3AuJVmyCIp7wkdPrexq2A2NUGLC95ic5sbONWQAvUJjjatXUWDsWgMJa2cSugNWoTGFnyogDQ2DZuBbRMbeCk624D8uXkJHRuLrlitA/tU5tAf8lLdGZ4G7cC2qo2gdqSl6RotrdxK6DdahM0uuQl3xzCNm4FJLVlaGLJi6/iC8PZxq2ApLYCOnv5I/tz+jk+LrNo9Z3GHQeS2oZwtOtmg8m0ZNxa0dvxNkTGR/gv/izpbBSS2sbg5w+38R//hIxEechIKBKU1/JP8I9MZG4cEM8GodqR1FYBx1+cjD7cdxN169dctEWF+L+t2+7o9L//bMm60/xIakvQQ1JbghZ6vX8AsxIcdA9JMakAAAAASUVORK5CYII=;fontSize=14;" parent="1" vertex="1">
                    <mxGeometry x="560" y="307.5" width="100" height="100" as="geometry"/>
                </mxCell>
                <mxCell id="23" value="&lt;font style=&quot;font-size: 14px;&quot;&gt;DynamoDB&lt;/font&gt;" style="sketch=0;points=[[0,0,0],[0.25,0,0],[0.5,0,0],[0.75,0,0],[1,0,0],[0,1,0],[0.25,1,0],[0.5,1,0],[0.75,1,0],[1,1,0],[0,0.25,0],[0,0.5,0],[0,0.75,0],[1,0.25,0],[1,0.5,0],[1,0.75,0]];outlineConnect=0;fontColor=#232F3E;gradientColor=#4D72F3;gradientDirection=north;fillColor=#3334B9;strokeColor=#ffffff;dashed=0;verticalLabelPosition=bottom;verticalAlign=top;align=center;html=1;fontSize=12;fontStyle=0;aspect=fixed;shape=mxgraph.aws4.resourceIcon;resIcon=mxgraph.aws4.dynamodb;" parent="1" vertex="1">
                    <mxGeometry x="797" y="307.5" width="100" height="100" as="geometry"/>
                </mxCell>
                <mxCell id="27" value="" style="endArrow=classic;html=1;fontSize=16;strokeWidth=2;" parent="1" edge="1">
                    <mxGeometry width="50" height="50" relative="1" as="geometry">
                        <mxPoint x="680" y="364" as="sourcePoint"/>
                        <mxPoint x="785" y="364.5" as="targetPoint"/>
                    </mxGeometry>
                </mxCell>
                <mxCell id="29" value="MSK Cluster" style="sketch=0;points=[[0,0,0],[0.25,0,0],[0.5,0,0],[0.75,0,0],[1,0,0],[0,1,0],[0.25,1,0],[0.5,1,0],[0.75,1,0],[1,1,0],[0,0.25,0],[0,0.5,0],[0,0.75,0],[1,0.25,0],[1,0.5,0],[1,0.75,0]];outlineConnect=0;fontColor=#232F3E;gradientColor=#945DF2;gradientDirection=north;fillColor=#5A30B5;strokeColor=#ffffff;dashed=0;verticalLabelPosition=bottom;verticalAlign=top;align=center;html=1;fontSize=12;fontStyle=0;aspect=fixed;shape=mxgraph.aws4.resourceIcon;resIcon=mxgraph.aws4.managed_streaming_for_kafka;" vertex="1" parent="1">
                    <mxGeometry x="386" y="141" width="100" height="100" as="geometry"/>
                </mxCell>
                <mxCell id="31" value="MSK Connect" style="sketch=0;outlineConnect=0;fontColor=#232F3E;gradientColor=none;fillColor=#4D27AA;strokeColor=none;dashed=0;verticalLabelPosition=bottom;verticalAlign=top;align=center;html=1;fontSize=12;fontStyle=0;aspect=fixed;pointerEvents=1;shape=mxgraph.aws4.msk_amazon_msk_connect;" vertex="1" parent="1">
                    <mxGeometry x="188" y="211" width="78" height="77" as="geometry"/>
                </mxCell>
                <mxCell id="34" value="" style="shape=cylinder3;whiteSpace=wrap;html=1;boundedLbl=1;backgroundOutline=1;size=15;rotation=90;" vertex="1" parent="1">
                    <mxGeometry x="414.5" y="312.5" width="43" height="109" as="geometry"/>
                </mxCell>
                <mxCell id="36" value="" style="endArrow=classic;html=1;fontSize=16;strokeWidth=2;" edge="1" parent="1">
                    <mxGeometry width="50" height="50" relative="1" as="geometry">
                        <mxPoint x="501" y="366.5" as="sourcePoint"/>
                        <mxPoint x="550" y="366.5" as="targetPoint"/>
                    </mxGeometry>
                </mxCell>
                <mxCell id="39" value="&lt;b&gt;VPC&lt;/b&gt;" style="sketch=0;outlineConnect=0;gradientColor=none;html=1;whiteSpace=wrap;fontSize=12;fontStyle=0;shape=mxgraph.aws4.group;grIcon=mxgraph.aws4.group_vpc;strokeColor=#879196;fillColor=none;verticalAlign=top;align=left;spacingLeft=30;fontColor=#879196;dashed=0;strokeWidth=2;" vertex="1" parent="1">
                    <mxGeometry x="160" y="105" width="572" height="362" as="geometry"/>
                </mxCell>
            </root>
        </mxGraphModel>
    </diagram>
</mxfile>